<?xml version="1.0" encoding="UTF-8"?>
<svg id="Warstwa_2" data-name="Warstwa 2" xmlns="http://www.w3.org/2000/svg" viewBox="0 0 393.03 391.39">
  <defs>
    <style>
      .cls-1 {
        fill: #fff;
      }
    </style>
  </defs>
  <g id="Warstwa_1-2" data-name="Warstwa 1">
    <path class="cls-1" d="M0,0v391.39h393.03V0H0ZM366.82,365.19h-80.24v-27.84h54.04v-26.2H106.22v26.2h154.16v27.84H26.2v-119.55h27.84v91.71h26.2v-149.02h-26.2v31.11h-27.84V26.2h235.82v24.56H104.81v26.2h209.61v157.21h26.2V50.77h-52.4v-24.56h78.61v338.98h-.01Z"/>
    <polygon class="cls-1" points="243.77 162.12 243.77 188.32 214.07 188.32 214.07 284.94 106.44 284.94 106.44 104.81 188.1 104.81 188.1 131.01 132.65 131.01 132.65 258.74 187.87 258.74 187.87 188.32 158.62 188.32 158.62 162.12 243.77 162.12"/>
    <polygon class="cls-1" points="340.39 258.74 340.39 284.94 237.22 284.94 237.22 258.74 260.38 258.74 260.38 131.01 212.46 131.01 212.46 104.81 286.35 104.81 286.35 124.46 286.58 124.46 286.58 258.74 340.39 258.74"/>
    <rect class="cls-1" x="54.04" y="50.77" width="26.2" height="111.36"/>
  </g>
</svg>